<?xml version="1.0" standalone="no"?>
    <svg xmlns="http://www.w3.org/2000/svg" viewBox="0 0 1440 320">
    <path fill="#141625" fill-opacity="1" d="M0,160L10,160C20,160,40,160,60,154.7C80,149,100,139,120,149.3C140,160,160,192,180,208C200,224,220,224,240,186.7C260,149,280,75,300,74.7C320,75,340,149,360,165.3C380,181,400,139,420,133.3C440,128,460,160,480,149.3C500,139,520,85,540,90.7C560,96,580,160,600,170.7C620,181,640,139,660,149.3C680,160,700,224,720,245.3C740,267,760,245,780,245.3C800,245,820,267,840,240C860,213,880,139,900,122.7C920,107,940,149,960,149.3C980,149,1000,107,1020,90.7C1040,75,1060,85,1080,122.7C1100,160,1120,224,1140,261.3C1160,299,1180,309,1200,293.3C1220,277,1240,235,1260,197.3C1280,160,1300,128,1320,133.3C1340,139,1360,181,1380,213.3C1400,245,1420,267,1430,277.3L1440,288L1440,320L1430,320C1420,320,1400,320,1380,320C1360,320,1340,320,1320,320C1300,320,1280,320,1260,320C1240,320,1220,320,1200,320C1180,320,1160,320,1140,320C1120,320,1100,320,1080,320C1060,320,1040,320,1020,320C1000,320,980,320,960,320C940,320,920,320,900,320C880,320,860,320,840,320C820,320,800,320,780,320C760,320,740,320,720,320C700,320,680,320,660,320C640,320,620,320,600,320C580,320,560,320,540,320C520,320,500,320,480,320C460,320,440,320,420,320C400,320,380,320,360,320C340,320,320,320,300,320C280,320,260,320,240,320C220,320,200,320,180,320C160,320,140,320,120,320C100,320,80,320,60,320C40,320,20,320,10,320L0,320Z"></path></svg>